<svg xmlns="http://www.w3.org/2000/svg" width="21.333" height="21.333" version="1.0" viewBox="0 0 16 16">
  <path d="M3.054.017a.52.52 0 0 0-.327.345c-.02.069-.023 1.041-.02 7.667l.005 7.588.042.09c.048.102.142.2.244.25l.073.035 4.924.005c3.84.003 4.939 0 4.994-.016.05-.012.095-.044.159-.106a.386.386 0 0 0 .12-.194l.033-.106V.42l-.033-.106a.386.386 0 0 0-.12-.194.424.424 0 0 0-.153-.106c-.099-.028-9.85-.025-9.94.003zm9.216 3.4v2.189l-4.2-.003-4.202-.005-.004-2.185L3.86 1.23h8.41v2.188zM5.864 7.026l.052.05v.843c0 .916.002.902-.09.948-.065.035-1.665.033-1.73-.001C4 8.816 4 8.829 4 7.927c0-.716.003-.828.025-.869.047-.092.044-.092.955-.087l.833.003.05.051zm3.02-.037c.108.045.103.001.103.942v.849l-.045.05-.045.052H7.175l-.043-.044-.044-.042-.004-.844c-.005-.935-.007-.918.095-.962.073-.033 1.629-.034 1.705-.001zm3.018 0c.103.044.102.026.102.94 0 .901.001.888-.094.937-.066.034-1.666.036-1.732.001-.09-.046-.089-.032-.089-.948v-.841l.045-.047a.203.203 0 0 1 .079-.053c.017-.003.394-.008.834-.01.661-.001.811.002.855.02zM5.844 9.945c.078.055.08.072.08.916 0 .503-.006.808-.017.845a.15.15 0 0 1-.066.091c-.049.03-.08.03-.897.027l-.849-.005-.042-.044-.044-.042-.005-.833c-.001-.456 0-.846.004-.864a.227.227 0 0 1 .05-.074L4.1 9.92h.853c.764 0 .858.003.891.025zm3.098.02l.045.046v.858c0 .787-.003.86-.028.889a.21.21 0 0 1-.06.052c-.024.012-.287.017-.873.017h-.84l-.052-.053-.054-.053v-.838c0-.893.002-.904.074-.946.019-.01.333-.016.885-.017h.858l.045.045zm3.006-.003a.227.227 0 0 1 .05.074c.003.018.004.408.003.864l-.005.833-.044.042-.042.044-.849.005c-.817.003-.848.003-.897-.027a.15.15 0 0 1-.065-.09c-.024-.08-.024-1.585-.002-1.665a.21.21 0 0 1 .058-.09c.039-.032.058-.032.895-.032h.855l.043.042zm-6.124 2.834c.094.033.092.014.097.867.003.43 0 .82-.005.866-.008.064-.022.096-.055.13l-.044.044h-.823c-.907 0-.902 0-.961-.097-.03-.05-.032-.077-.032-.875v-.823l.04-.048a.222.222 0 0 1 .09-.063c.07-.02 1.635-.021 1.693-.001zm3.126.036l.037.044v1.737l-.045.044-.045.046h-.824c-.891 0-.891 0-.958-.086-.035-.044-.035-.046-.035-.877v-.832l.041-.048a.222.222 0 0 1 .09-.063c.027-.007.402-.014.874-.012l.827.003.038.044zm2.966-.03a.115.115 0 0 1 .07.072c.024.07.026 1.663 0 1.733-.034.097-.023.096-.92.096-.892 0-.886 0-.949-.09-.026-.04-.028-.101-.033-.84-.003-.541 0-.816.013-.855a.196.196 0 0 1 .133-.127c.017-.003.392-.008.833-.01.652 0 .811.004.853.021z"/>
  <path d="M8.437 1.699a.666.666 0 0 0-.464.282c-.094.14-.103.188-.103.5v.274l.06.119c.121.248.345.372.67.372.337 0 .556-.119.68-.372.059-.119.059-.119.065-.347a1.999 1.999 0 0 0-.012-.314.657.657 0 0 0-.436-.483 1.243 1.243 0 0 0-.46-.031zm.297.448c.094.069.105.102.11.306.003.176.001.196-.032.254-.048.084-.122.12-.228.112a.224.224 0 0 1-.199-.122c-.026-.045-.03-.081-.03-.225 0-.145.005-.181.034-.236a.224.224 0 0 1 .137-.12.321.321 0 0 1 .208.031zm-2.768-.25a3.6 3.6 0 0 0-.011.39v.38h-.688v.595h.688v.797h.656v-.797l.349-.004.347-.004v-.579l-.347-.004-.349-.003v-.781h-.317a2.73 2.73 0 0 0-.328.01zm4.095.093l-.824 1.358c-.448.737-.819 1.35-.823 1.36-.008.023.433.295.448.278.008-.007.383-.624.836-1.37.685-1.127.821-1.361.804-1.377a6.512 6.512 0 0 0-.425-.26c-.005 0-.013.006-.016.012zm.247 1.6c-.26.037-.44.164-.544.387l-.05.105v.564l.06.12a.645.645 0 0 0 .337.318c.086.036.134.044.29.05.287.011.452-.04.603-.188.11-.107.167-.237.189-.428.045-.392-.063-.688-.3-.83a.996.996 0 0 0-.585-.098zm.214.422c.05 0 .147.11.169.187a.97.97 0 0 1-.02.41c-.032.073-.096.106-.204.106a.255.255 0 0 1-.22-.114c-.028-.037-.034-.072-.037-.22-.005-.157-.002-.186.026-.243a.312.312 0 0 1 .072-.089c.045-.03.131-.053.161-.043a.261.261 0 0 0 .053.006zm-4.845.656c.003.147.01.266.017.266h1.199v-.531h-1.22l.004.265z"/>
</svg>
