<svg xmlns="http://www.w3.org/2000/svg" width="169.572" height="256" viewBox="0 0 169.572 256" focusable="false">
  <path fill="#fff" d="M9.786 10.75h148.25v234H9.786z"/>
  <path fill="#5373f4" d="M162.635 0H7.78C3.502 0 0 3.71 0 8.143v239.723C0 252.3 3.503 256 7.78 256h154.854c4.274 0 6.938-3.7 6.938-8.134V8.143c0-4.434-2.662-8.143-6.937-8.143M51.418 232.436c0 1.476-.773 2.778-2.25 2.778h-25.29c-1.476 0-3.092-1.304-3.092-2.778v-25.29c0-1.477 1.616-2.563 3.09-2.563H49.17c1.476 0 2.25 1.088 2.25 2.564v25.29zm0-45.842a2.67 2.67 0 0 1-2.67 2.672H23.456a2.67 2.67 0 0 1-2.67-2.672v-25.29a2.67 2.67 0 0 1 2.67-2.67h25.292a2.67 2.67 0 0 1 2.67 2.67zm0-47.042a2.67 2.67 0 0 1-2.67 2.67H23.456a2.67 2.67 0 0 1-2.67-2.67v-25.29a2.67 2.67 0 0 1 2.67-2.67h25.292a2.67 2.67 0 0 1 2.67 2.67zm49.232 92.884c0 1.476-.776 2.778-2.25 2.778H73.107c-1.475 0-3.09-1.304-3.09-2.778v-25.29c0-1.477 1.615-2.563 3.09-2.563H98.4c1.476 0 2.25 1.088 2.25 2.564zm0-92.884a2.67 2.67 0 0 1-2.672 2.67h-25.29a2.67 2.67 0 0 1-2.67-2.67v-25.29a2.67 2.67 0 0 1 2.67-2.67h25.29a2.67 2.67 0 0 1 2.67 2.67v25.29zm-27.963 19.082h25.29a2.67 2.67 0 0 1 2.67 2.67v25.29h.002c0 1.477-1.2 2.672-2.68 2.672H72.68a2.67 2.67 0 0 1-2.67-2.672v-25.29a2.67 2.67 0 0 1 2.67-2.67zm76.1 73.802c0 1.476-.775 2.778-2.25 2.778h-25.294c-1.474 0-3.09-1.304-3.09-2.778v-25.29c0-1.477 1.616-2.563 3.09-2.563h25.293c1.476 0 2.25 1.088 2.25 2.564v25.29zm0-45.842a2.67 2.67 0 0 1-2.672 2.672h-25.29a2.67 2.67 0 0 1-2.67-2.672v-25.29a2.67 2.67 0 0 1 2.67-2.67h25.29a2.67 2.67 0 0 1 2.67 2.67v25.29zm0-47.042a2.67 2.67 0 0 1-2.672 2.67h-25.29a2.67 2.67 0 0 1-2.67-2.67v-25.29a2.67 2.67 0 0 1 2.67-2.67h25.29a2.667 2.667 0 0 1 2.67 2.67v25.29zm4.375-49.843H18.598V19.69H153.16v70.02z"/>
  <path fill="#5373f4" d="m125.192 36.066-26.735 44-7.29-4.432L117.9 31.636l7.29 4.43zM94.36 27.038q-5.729 0-8.834 3.16-3.105 3.159-3.104 7.965v2.845q-.002 4.77 3.122 7.91 3.121 3.142 8.89 3.142 5.728 0 8.83-3.123 3.105-3.123 3.105-7.93v-2.844c0-3.203-1.04-5.858-3.11-7.965s-5.04-3.16-8.91-3.16zm3.99 13.96q0 1.835-1.02 3.068-1.012 1.23-2.898 1.23-1.96 0-2.993-1.23c-.69-.82-1.04-1.844-1.04-3.067v-2.83c0-1.23.34-2.26 1.03-3.11q1.034-1.268 2.92-1.268 1.921-.001 2.957 1.265 1.032 1.27 1.033 3.104V41zm34.51 19.487q-3.086-3.14-8.89-3.14-5.725 0-8.868 3.16-3.142 3.161-3.143 7.927v2.846c0 3.203 1.05 5.853 3.16 7.948 2.1 2.093 5.08 3.14 8.92 3.14 3.82 0 6.753-1.04 8.81-3.122q3.088-3.124 3.086-7.965v-2.85q.001-4.815-3.086-7.95zm-4.895 10.783q.001 2.058-.814 3.194c-.54.76-1.57 1.14-3.1 1.14q-1.695 0-2.88-1.285c-.79-.856-1.18-1.872-1.18-3.05V68.44c0-1.195.347-2.22 1.036-3.065q1.036-1.266 2.955-1.266c1.26 0 2.237.42 2.94 1.26.703.843 1.055 1.87 1.055 3.064v2.83zm-60.82 7.85H47.42v-8.533h19.723v8.533zm-4.677-36.36h11.19v9.485H62.47v12.832H52.13V52.243H40.907v-9.486H52.13v-12.47h10.338z"/>
</svg>
