<?xml version="1.0" standalone="no"?>
<!DOCTYPE svg PUBLIC "-//W3C//DTD SVG 20010904//EN"
 "http://www.w3.org/TR/2001/REC-SVG-20010904/DTD/svg10.dtd">
<svg version="1.0" xmlns="http://www.w3.org/2000/svg"
 width="16.000000pt" height="16.000000pt" viewBox="0 0 16.000000 16.000000"
 preserveAspectRatio="xMidYMid meet">
<metadata>
Created by potrace 1.11, written by Peter Selinger 2001-2013
</metadata>
<g transform="translate(0.000000,16.000000) scale(0.001563,-0.001563)"
fill="#000000" stroke="none">
<path d="M1954 10226 c-96 -30 -180 -119 -209 -221 -13 -44 -15 -666 -13
-4905 l3 -4855 27 -57 c31 -66 91 -128 156 -160 l47 -23 3150 -3 c2457 -2
3160 0 3195 10 32 8 61 28 102 68 46 47 60 68 77 124 l21 68 0 4848 0 4848
-21 68 c-17 56 -31 77 -77 124 -37 36 -71 60 -98 68 -63 18 -6302 16 -6360 -2z
m5896 -2176 l0 -1400 -2687 2 -2688 3 -3 1398 -2 1397 2690 0 2690 0 0 -1400z
m-4098 -2308 l33 -32 0 -539 c0 -586 1 -577 -57 -607 -42 -22 -1066 -21 -1108
1 -61 31 -60 23 -60 600 0 458 2 530 16 556 30 59 28 59 611 56 l533 -2 32
-33z m1932 24 c69 -29 66 -1 66 -603 l0 -543 -29 -32 -29 -33 -551 0 -551 0
-27 28 -28 27 -3 540 c-3 598 -4 587 61 615 47 21 1042 22 1091 1z m1931 0
c66 -28 65 -17 65 -601 0 -577 1 -569 -60 -600 -42 -22 -1066 -23 -1108 -1
-58 30 -57 21 -57 607 l0 538 29 30 c16 16 38 32 50 34 11 2 252 5 534 6 423
1 519 -1 547 -13z m-3876 -1892 c50 -35 51 -46 51 -586 0 -322 -4 -517 -11
-541 -7 -25 -21 -45 -42 -58 -31 -19 -51 -19 -574 -17 l-543 3 -27 28 -28 27
-3 533 c-1 292 0 541 2 553 3 11 18 33 32 47 l27 27 546 0 c489 0 549 -2 570
-16z m1982 -13 l29 -29 0 -549 c0 -504 -2 -550 -18 -569 -9 -12 -27 -27 -39
-33 -15 -8 -183 -11 -558 -11 l-537 0 -34 34 -34 34 0 536 c0 571 1 578 47
605 12 7 213 10 566 11 l549 0 29 -29z m1923 2 c14 -14 29 -36 32 -47 2 -12 3
-261 2 -553 l-3 -533 -28 -27 -27 -28 -543 -3 c-523 -2 -543 -2 -574 17 -21
13 -35 33 -42 58 -15 51 -15 1014 -1 1065 6 20 22 46 37 58 25 20 37 20 573
20 l547 0 27 -27z m-3918 -1813 c60 -21 59 -9 62 -555 2 -275 0 -524 -3 -554
-5 -41 -14 -61 -35 -83 l-28 -28 -527 0 c-580 0 -577 0 -615 62 -19 32 -20 49
-20 560 l0 526 26 31 c14 17 40 35 57 40 45 13 1046 14 1083 1z m2000 -23 l24
-28 0 -555 0 -556 -29 -29 -29 -29 -527 0 c-570 0 -570 0 -613 55 -22 28 -22
29 -22 561 l0 532 26 31 c14 17 40 35 57 40 18 5 258 9 560 8 l529 -2 24 -28z
m1898 19 c23 -9 37 -24 45 -46 15 -45 16 -1064 0 -1109 -22 -62 -15 -61 -589
-61 -571 0 -567 0 -607 58 -17 25 -18 64 -21 537 -2 346 0 522 8 547 10 37 47
71 85 81 11 2 251 5 533 6 417 1 519 -2 546 -13z"/>
<path d="M5398 9150 c-135 -24 -232 -84 -297 -181 -60 -89 -66 -120 -66 -320
l0 -175 38 -76 c78 -159 221 -238 429 -238 216 0 356 76 435 238 38 76 38 76
42 222 2 86 -2 169 -8 201 -31 144 -141 266 -279 309 -75 23 -222 34 -294 20z
m190 -287 c60 -44 67 -65 70 -196 2 -112 1 -125 -20 -162 -31 -54 -78 -77
-146 -72 -60 4 -97 27 -127 78 -17 29 -20 52 -20 144 1 93 4 116 22 151 22 41
51 67 88 77 36 10 107 -1 133 -20z"/>
<path d="M3817 9023 c-4 -3 -7 -116 -7 -250 l0 -243 -220 0 -220 0 0 -190 0
-190 220 0 220 0 0 -255 0 -255 210 0 210 0 0 255 0 255 223 2 222 3 0 185 0
185 -222 3 -223 2 0 250 0 250 -203 0 c-112 0 -207 -3 -210 -7z"/>
<path d="M6437 8963 c-3 -5 -240 -395 -527 -868 -287 -472 -524 -864 -527
-871 -5 -14 277 -188 287 -177 5 4 245 399 535 876 438 721 525 871 514 881
-17 15 -264 166 -272 166 -3 0 -8 -3 -10 -7z"/>
<path d="M6595 7940 c-166 -24 -281 -105 -348 -248 l-32 -67 0 -181 0 -180 38
-76 c47 -95 121 -165 216 -204 55 -23 86 -28 185 -32 184 -7 290 26 386 120
71 69 107 152 121 274 29 251 -40 440 -192 531 -91 54 -248 81 -374 63z m137
-270 c32 0 94 -70 108 -120 16 -58 8 -213 -13 -262 -20 -47 -61 -68 -130 -68
-60 0 -104 23 -141 73 -18 24 -22 46 -24 141 -3 100 -1 119 17 155 12 22 33
48 46 57 29 19 84 34 103 28 8 -2 23 -4 34 -4z"/>
<path d="M3632 7250 c2 -94 6 -170 11 -170 4 0 178 0 387 0 l380 0 0 170 0
170 -390 0 -390 0 2 -170z"/>
</g>
</svg>
