<svg xmlns="http://www.w3.org/2000/svg" width="169.572" height="256" viewBox="0 0 169.572 256">
  <path fill="#FFF" d="M9.786 10.75h148.25v234H9.786z"/>
  <path d="M162.635 0H7.78C3.502 0 0 3.71 0 8.143v239.723C0 252.3 3.503 256 7.78 256h154.854c4.274 0 6.938-3.7 6.938-8.134V8.143c0-4.434-2.662-8.143-6.937-8.143zM51.418 232.436c0 1.476-.773 2.778-2.25 2.778h-25.29c-1.476 0-3.092-1.304-3.092-2.778v-25.29c0-1.477 1.616-2.563 3.09-2.563H49.17c1.476 0 2.25 1.088 2.25 2.564v25.29zm0-45.842a2.67 2.67 0 0 1-2.67 2.672H23.456a2.67 2.67 0 0 1-2.67-2.672v-25.29a2.669 2.669 0 0 1 2.67-2.67h25.292a2.669 2.669 0 0 1 2.67 2.67v25.29zm0-47.042a2.668 2.668 0 0 1-2.67 2.67H23.456a2.669 2.669 0 0 1-2.67-2.67v-25.29a2.669 2.669 0 0 1 2.67-2.67h25.292a2.668 2.668 0 0 1 2.67 2.67v25.29zm49.232 92.884c0 1.476-.776 2.778-2.25 2.778H73.107c-1.475 0-3.09-1.304-3.09-2.778v-25.29c0-1.477 1.615-2.563 3.09-2.563H98.4c1.476 0 2.25 1.088 2.25 2.564v25.29zm0-92.884a2.67 2.67 0 0 1-2.672 2.67h-25.29a2.668 2.668 0 0 1-2.67-2.67v-25.29a2.668 2.668 0 0 1 2.67-2.67h25.29a2.668 2.668 0 0 1 2.67 2.67v25.29zm-27.963 19.082h25.29a2.668 2.668 0 0 1 2.67 2.67v25.29h.002c0 1.477-1.2 2.672-2.68 2.672H72.68a2.67 2.67 0 0 1-2.67-2.672v-25.29a2.669 2.669 0 0 1 2.67-2.67zm76.1 73.802c0 1.476-.775 2.778-2.25 2.778h-25.294c-1.474 0-3.09-1.304-3.09-2.778v-25.29c0-1.477 1.616-2.563 3.09-2.563h25.293c1.476 0 2.25 1.088 2.25 2.564v25.29zm0-45.842a2.67 2.67 0 0 1-2.672 2.672h-25.29a2.67 2.67 0 0 1-2.67-2.672v-25.29a2.669 2.669 0 0 1 2.67-2.67h25.29a2.668 2.668 0 0 1 2.67 2.67v25.29zm0-47.042a2.67 2.67 0 0 1-2.672 2.67h-25.29a2.668 2.668 0 0 1-2.67-2.67v-25.29a2.669 2.669 0 0 1 2.67-2.67h25.29a2.667 2.667 0 0 1 2.67 2.67v25.29zm4.375-49.843H18.598V19.69H153.16v70.02h.002z"/>
  <path d="M125.192 36.066l-26.735 44-7.29-4.432L117.9 31.636l7.29 4.43zM94.36 27.038c-3.82 0-6.763 1.053-8.834 3.16-2.07 2.107-3.104 4.76-3.104 7.965v2.845c0 3.18 1.038 5.817 3.122 7.91 2.08 2.095 5.045 3.142 8.89 3.142 3.817 0 6.763-1.04 8.83-3.123 2.07-2.083 3.105-4.725 3.105-7.93v-2.844c0-3.203-1.04-5.858-3.11-7.965s-5.04-3.16-8.91-3.16zm3.99 13.96c0 1.224-.34 2.246-1.02 3.068-.675.82-1.64 1.23-2.898 1.23-1.306 0-2.305-.41-2.993-1.23-.69-.82-1.04-1.844-1.04-3.067v-2.83c0-1.23.34-2.26 1.03-3.11.69-.846 1.662-1.268 2.92-1.268 1.28 0 2.267.42 2.957 1.265.687.847 1.033 1.882 1.033 3.104V41zm34.51 19.487c-2.058-2.094-5.02-3.14-8.89-3.14-3.817 0-6.773 1.053-8.868 3.16-2.094 2.107-3.143 4.75-3.143 7.927v2.846c0 3.203 1.05 5.853 3.16 7.948 2.1 2.093 5.08 3.14 8.92 3.14 3.82 0 6.753-1.04 8.81-3.122 2.06-2.083 3.086-4.737 3.086-7.965v-2.85c0-3.21-1.027-5.86-3.086-7.95zm-4.895 10.783c0 1.372-.27 2.437-.814 3.194-.54.76-1.57 1.14-3.1 1.14-1.13 0-2.09-.428-2.88-1.285-.79-.856-1.18-1.872-1.18-3.05V68.44c0-1.195.347-2.22 1.036-3.065.69-.844 1.676-1.266 2.955-1.266 1.26 0 2.237.42 2.94 1.26.703.843 1.055 1.87 1.055 3.064v2.83zm-60.82 7.85H47.42v-8.533h19.723v8.533zm-4.677-36.36h11.19v9.485H62.47v12.832H52.13V52.243H40.907v-9.486H52.13v-12.47h10.338v12.47z"/>
</svg>
